<svg xmlns="http://www.w3.org/2000/svg" xmlns:xlink="http://www.w3.org/1999/xlink" version="1.1" id="Layer_1" x="0px" y="0px" width="100px" height="100px" viewBox="0 0 100 100" enable-background="new 0 0 100 100" xml:space="preserve">
<path d="M45.866,12.068c0,0-0.291-1.496-2.868-1.435c-0.788,0.018-0.792,0.434-0.792,0.434v0.772  c-0.332-0.938-1.014-1.089-1.231-1.114l-0.07-0.152c0,0-5.113-0.684-4.911,3.251c0.042,0.851,1.504,2.309,1.504,2.309  s0.447,0.135,0.628,3.52c0.198,3.762,0.985,3.858,0.985,3.858s0.516,0.291,1.1,0c0.582-0.291-0.495-5.919,0.089-6.715  c0.521-0.71,0.997-0.964,0.997-0.964l-0.007-0.178c0.279-0.082,0.682-0.34,0.917-1.121v0.599c0,0-0.135,0.494,0.463,0.464  c0.597-0.03,2.301,0.164,3.004-0.957c0.088-0.138,0.154-0.281,0.206-0.425v-2.104C45.875,12.091,45.866,12.068,45.866,12.068z"/>
<path d="M49.635,5.171l-0.068,0.151c-0.219,0.025-0.901,0.177-1.232,1.116V5.665c0,0-0.005-0.416-0.792-0.435  c-2.577-0.061-2.869,1.436-2.869,1.436s-0.007,0.023-0.013,0.041V8.81c0.054,0.145,0.121,0.288,0.207,0.426  c0.703,1.122,2.406,0.927,3.003,0.957c0.6,0.03,0.464-0.463,0.464-0.463v-0.6c0.234,0.782,0.639,1.04,0.917,1.121l-0.006,0.178  c0,0,0.477,0.253,0.996,0.965c0.583,0.796-0.493,6.424,0.089,6.713c0.583,0.293,1.1,0,1.1,0s0.786-0.093,0.986-3.855  c0.179-3.385,0.628-3.52,0.628-3.52s1.46-1.458,1.503-2.31C54.746,4.487,49.635,5.171,49.635,5.171z"/>
<path d="M74.733,68.062c-1.119-0.278-2.127-0.068-2.985,0.62c-0.483,0.386-0.904,0.917-1.271,1.565  c-1.274-0.767-2.088-2.267-2.887-3.737c-0.451-0.828-0.875-1.611-1.372-2.229c-0.8-0.999-1.514-2.076-2.208-3.116  c-0.85-1.282-1.729-2.605-2.783-3.814c-0.325-0.371-0.69-0.746-1.064-1.132c-1.224-1.26-2.596-2.688-2.843-4.238l-0.007,0.003  c-0.12-0.471-0.257-0.949-0.421-1.434c-1.083-4.236-1.442-8.897-1.821-13.798c-0.516-6.676-1.048-13.58-3.584-19.438l-0.705,0.306  c2.485,5.74,3.011,12.578,3.522,19.192c0.263,3.383,0.529,6.839,1.065,10.126c-1.565-3.18-3.58-6.205-4.942-8.116  c-0.99-1.392-2.094-2.767-3.263-4.22c-2.774-3.452-6.306-8.35-7.595-12.188l-0.728,0.246c1.333,3.969,4.908,8.92,7.725,12.424  c1.161,1.444,2.257,2.811,3.235,4.183c1.85,2.595,4.915,7.263,6.359,11.515c0.127,0.495,0.27,0.977,0.416,1.458l-0.009,0.004  c0.287,1.788,1.796,3.228,3.044,4.511c0.366,0.375,0.721,0.74,1.035,1.103c1.021,1.17,1.887,2.473,2.725,3.732  c0.701,1.056,1.427,2.146,2.249,3.173c0.453,0.564,0.86,1.318,1.295,2.114c0.806,1.487,1.725,3.179,3.209,4.062  c-2.403,5.212-2.168,15.997-2.045,21.637c0.02,0.932,0.038,1.707,0.038,2.271h0.767c0-0.567-0.018-1.349-0.036-2.288  c-0.115-5.168-0.355-16.259,1.958-21.291c1.039,0.394,2.325,0.41,3.973-0.196c0.596-0.101,1.16-0.758,1.228-1.439  C76.039,69.291,75.983,68.458,74.733,68.062z M74.64,70.315l-0.091,0.021c-1.4,0.524-2.492,0.542-3.381,0.236  c0.312-0.535,0.663-0.973,1.06-1.289c0.672-0.54,1.431-0.695,2.299-0.482c0.508,0.161,0.747,0.415,0.716,0.755  C75.204,69.941,74.85,70.291,74.64,70.315z"/>
</svg>