<svg xmlns="http://www.w3.org/2000/svg" xmlns:xlink="http://www.w3.org/1999/xlink" version="1.1" id="Calque_1" x="0px" y="0px" width="100px" height="100px" viewBox="0 0 100 100" enable-background="new 0 0 100 100" xml:space="preserve">
<g>
	<g>
		<path fill="#000000" d="M68.156,62.109l-0.328,5.28c-0.025,7.212-4.68,7.818-9.45,7.818c-0.656,0-1.358-0.012-2.107-0.024    c-0.817-0.012-1.696-0.027-2.629-0.027h-7.284c-0.934,0-1.811,0.016-2.63,0.027c-0.746,0.013-1.452,0.024-2.105,0.024    c-4.771,0-9.427-0.606-9.45-7.818l-0.33-5.28c-7.263,3.295-11.976,14.896-11.976,20.773c0,9.964,13.491,13.776,30.133,13.776    c16.645,0,30.135-3.812,30.135-13.776C80.134,77.006,75.421,65.404,68.156,62.109z"/>
	</g>
	<path fill="#000000" d="M53.681,3.341h-7.362c-7.924,0-13.12,3.281-13.12,9.96v13.585l1.305,40.267   c0,6.681,3.891,5.692,11.815,5.692h7.362c7.925,0,11.816,0.988,11.816-5.692l1.376-41.415V12.146   C66.873,5.468,61.605,3.341,53.681,3.341z M54.936,8.68c0.267,0,0.481,0.215,0.481,0.479c0,0.265-0.215,0.479-0.481,0.479   c-0.263,0-0.479-0.214-0.479-0.479C54.456,8.895,54.673,8.68,54.936,8.68z M54.588,10.118c0,0.264-0.213,0.479-0.479,0.479   c-0.265,0-0.481-0.215-0.481-0.479c0-0.268,0.217-0.48,0.481-0.48C54.375,9.638,54.588,9.851,54.588,10.118z M54.108,7.723   c0.267,0,0.479,0.214,0.479,0.479S54.375,8.68,54.108,8.68c-0.265,0-0.481-0.214-0.481-0.479S53.844,7.723,54.108,7.723z    M53.291,8.68c0.266,0,0.479,0.215,0.479,0.479c0,0.265-0.214,0.479-0.479,0.479c-0.265,0-0.479-0.214-0.479-0.479   C52.812,8.895,53.026,8.68,53.291,8.68z M52.941,10.118c0,0.264-0.214,0.479-0.479,0.479s-0.479-0.215-0.479-0.479   c0-0.268,0.213-0.48,0.479-0.48S52.941,9.851,52.941,10.118z M52.462,7.723c0.266,0,0.479,0.214,0.479,0.479   S52.728,8.68,52.462,8.68s-0.479-0.214-0.479-0.479S52.196,7.723,52.462,7.723z M51.645,8.68c0.267,0,0.48,0.215,0.48,0.479   c0,0.265-0.214,0.479-0.48,0.479c-0.265,0-0.479-0.214-0.479-0.479C51.165,8.895,51.38,8.68,51.645,8.68z M51.296,10.118   c0,0.264-0.214,0.479-0.479,0.479s-0.48-0.215-0.48-0.479c0-0.268,0.215-0.48,0.48-0.48S51.296,9.851,51.296,10.118z M50.817,7.723   c0.265,0,0.479,0.214,0.479,0.479S51.082,8.68,50.817,8.68s-0.48-0.214-0.48-0.479S50.553,7.723,50.817,7.723z M49.999,8.68   c0.266,0,0.48,0.215,0.48,0.479c0,0.265-0.214,0.479-0.48,0.479c-0.266,0-0.48-0.214-0.48-0.479   C49.519,8.895,49.733,8.68,49.999,8.68z M49.651,10.118c0,0.264-0.214,0.479-0.479,0.479c-0.266,0-0.48-0.215-0.48-0.479   c0-0.268,0.215-0.48,0.48-0.48C49.437,9.638,49.651,9.851,49.651,10.118z M49.172,7.723c0.265,0,0.479,0.214,0.479,0.479   S49.437,8.68,49.172,8.68c-0.266,0-0.48-0.214-0.48-0.479S48.906,7.723,49.172,7.723z M48.354,8.68   c0.266,0,0.481,0.215,0.481,0.479c0,0.265-0.215,0.479-0.481,0.479c-0.266,0-0.48-0.214-0.48-0.479   C47.874,8.895,48.088,8.68,48.354,8.68z M48.005,10.118c0,0.264-0.215,0.479-0.48,0.479c-0.264,0-0.479-0.215-0.479-0.479   c0-0.268,0.215-0.48,0.479-0.48C47.791,9.638,48.005,9.851,48.005,10.118z M47.525,7.723c0.266,0,0.48,0.214,0.48,0.479   s-0.215,0.479-0.48,0.479c-0.264,0-0.479-0.214-0.479-0.479S47.261,7.723,47.525,7.723z M46.708,8.68   c0.265,0,0.479,0.215,0.479,0.479c0,0.265-0.215,0.479-0.479,0.479c-0.266,0-0.48-0.214-0.48-0.479   C46.228,8.895,46.442,8.68,46.708,8.68z M46.359,10.118c0,0.264-0.214,0.479-0.48,0.479c-0.264,0-0.48-0.215-0.48-0.479   c0-0.268,0.216-0.48,0.48-0.48C46.145,9.638,46.359,9.851,46.359,10.118z M45.879,7.723c0.266,0,0.48,0.214,0.48,0.479   s-0.214,0.479-0.48,0.479c-0.264,0-0.48-0.214-0.48-0.479S45.615,7.723,45.879,7.723z M45.063,8.68   c0.264,0,0.479,0.215,0.479,0.479c0,0.265-0.215,0.479-0.479,0.479c-0.267,0-0.481-0.214-0.481-0.479   C44.582,8.895,44.797,8.68,45.063,8.68z M42.215,68.931h-1.421c-1.129,0-2.045-0.914-2.045-2.044c0-1.131,0.916-2.046,2.045-2.046   h1.421c1.129,0,2.045,0.915,2.045,2.046C44.26,68.017,43.344,68.931,42.215,68.931z M42.215,62.53h-1.421   c-1.129,0-2.045-0.912-2.045-2.042c0-1.132,0.916-2.047,2.045-2.047h1.421c1.129,0,2.045,0.915,2.045,2.047   C44.26,61.618,43.344,62.53,42.215,62.53z M42.215,56.131h-1.421c-1.129,0-2.045-0.914-2.045-2.043   c0-1.131,0.916-2.046,2.045-2.046h1.421c1.129,0,2.045,0.915,2.045,2.046C44.26,55.217,43.344,56.131,42.215,56.131z    M42.215,49.732h-1.421c-1.129,0-2.045-0.915-2.045-2.044c0-1.131,0.916-2.046,2.045-2.046h1.421c1.129,0,2.045,0.915,2.045,2.046   C44.26,48.818,43.344,49.732,42.215,49.732z M45.134,41.467h-3.966c-1.717,0-3.104-2.187-3.104-4.887   c0-2.696,1.388-4.886,3.104-4.886h3.966c0.062,0,0.119,0.023,0.18,0.029c-1.462,0.137-2.301,3.019-2.301,4.856   c0,1.741,0.837,4.714,2.295,4.86C45.251,41.444,45.195,41.467,45.134,41.467z M50.748,68.931h-1.422   c-1.129,0-2.045-0.914-2.045-2.044c0-1.131,0.916-2.046,2.045-2.046h1.422c1.129,0,2.044,0.915,2.044,2.046   C52.792,68.017,51.877,68.931,50.748,68.931z M50.748,62.53h-1.422c-1.129,0-2.045-0.912-2.045-2.042   c0-1.132,0.916-2.047,2.045-2.047h1.422c1.129,0,2.044,0.915,2.044,2.047C52.792,61.618,51.877,62.53,50.748,62.53z M50.748,56.131   h-1.422c-1.129,0-2.045-0.914-2.045-2.043c0-1.131,0.916-2.046,2.045-2.046h1.422c1.129,0,2.044,0.915,2.044,2.046   C52.792,55.217,51.877,56.131,50.748,56.131z M50.748,49.732h-1.422c-1.129,0-2.045-0.915-2.045-2.044   c0-1.131,0.916-2.046,2.045-2.046h1.422c1.129,0,2.044,0.915,2.044,2.046C52.792,48.818,51.877,49.732,50.748,49.732z    M49.999,41.464c-2.698,0-4.885-2.188-4.885-4.884c0-2.698,2.187-4.886,4.885-4.886c2.699,0,4.887,2.188,4.887,4.886   C54.886,39.276,52.698,41.464,49.999,41.464z M59.279,68.931h-1.422c-1.128,0-2.045-0.914-2.045-2.044   c0-1.131,0.917-2.046,2.045-2.046h1.422c1.129,0,2.046,0.915,2.046,2.046C61.325,68.017,60.408,68.931,59.279,68.931z    M59.279,62.53h-1.422c-1.128,0-2.045-0.912-2.045-2.042c0-1.132,0.917-2.047,2.045-2.047h1.422c1.129,0,2.046,0.915,2.046,2.047   C61.325,61.618,60.408,62.53,59.279,62.53z M59.279,56.131h-1.422c-1.128,0-2.045-0.914-2.045-2.043   c0-1.131,0.917-2.046,2.045-2.046h1.422c1.129,0,2.046,0.915,2.046,2.046C61.325,55.217,60.408,56.131,59.279,56.131z    M59.279,49.732h-1.422c-1.128,0-2.045-0.915-2.045-2.044c0-1.131,0.917-2.046,2.045-2.046h1.422c1.129,0,2.046,0.915,2.046,2.046   C61.325,48.818,60.408,49.732,59.279,49.732z M58.904,41.467h-3.967c-0.061,0-0.117-0.023-0.179-0.03   c1.462-0.137,2.302-3.018,2.302-4.855c0-1.742-0.838-4.714-2.296-4.86c0.058-0.004,0.114-0.027,0.173-0.027h3.967   c1.719,0,3.104,2.188,3.104,4.887C62.009,39.276,60.623,41.467,58.904,41.467z M63.067,27.69H37.006V14.092h26.061V27.69z"/>
</g>
</svg>